<svg width="336" height="100" viewBox="0 0 336 100" fill="none" xmlns="http://www.w3.org/2000/svg">
<g clip-path="url(#clip0_709_574)">
<path d="M205.08 74.987C202.195 74.987 199.282 74.2832 196.598 72.8104C192.599 70.6077 189.727 67.0105 188.506 62.7094C187.285 58.4084 187.862 53.8858 190.143 50.0018C192.961 45.1925 198.021 42.0514 203.711 41.5952L204.006 44.997C199.484 45.3619 195.458 47.8643 193.216 51.6831C191.405 54.7721 190.948 58.3563 191.915 61.7841C192.881 65.2119 195.176 68.0662 198.356 69.8257C201.537 71.5852 205.241 72.0284 208.757 71.09C212.286 70.1516 215.226 67.9228 217.037 64.8339C219.278 61.0151 219.426 56.3621 217.426 52.4L220.594 50.9011C223.09 55.8799 222.915 61.7189 220.097 66.5152C216.916 71.9502 211.079 74.987 205.08 74.987Z" fill="white"/>
<path d="M251.795 75C250.265 75 248.722 74.8045 247.192 74.3874C242.75 73.2014 239.06 70.4122 236.792 66.5283C233.973 61.7189 233.799 55.8799 236.295 50.9141L239.462 52.413C237.476 56.3752 237.624 61.0151 239.851 64.8469C241.663 67.9359 244.602 70.1516 248.132 71.103C251.661 72.0414 255.352 71.5983 258.532 69.8388C261.713 68.0792 263.994 65.2249 264.974 61.7971C265.94 58.3693 265.484 54.7851 263.672 51.6962C261.431 47.8773 257.405 45.3749 252.882 45.01L253.178 41.6082C258.854 42.0644 263.927 45.2055 266.745 50.0148C269.013 53.8988 269.604 58.4084 268.383 62.7225C267.161 67.0366 264.29 70.6208 260.29 72.8234C257.647 74.2571 254.734 75 251.795 75Z" fill="white"/>
<path d="M206.046 60.1027L202.839 58.6951L211.911 39.2622H234.389V42.677H214.179L206.046 60.1027Z" fill="white"/>
<path d="M247.675 58.7081L236.121 27.4148H228.766V24H238.603L250.99 57.5612L247.675 58.7081Z" fill="white"/>
<path d="M113.206 36.9035H117.406C119.151 36.9035 120.479 37.4509 121.405 38.5327C122.331 39.6145 122.801 41.0221 122.801 42.7555C122.801 43.5897 122.667 44.3978 122.398 45.1798C122.13 45.9487 121.727 46.6656 121.191 47.3303C120.654 47.995 119.929 48.5163 119.03 48.9204C118.131 49.3114 117.111 49.5199 115.97 49.5199H110.924L113.206 36.9035ZM115.876 46.8871C117.071 46.8871 118.023 46.4831 118.708 45.6881C119.406 44.893 119.741 43.9546 119.741 42.8859C119.741 41.8171 119.513 40.983 119.043 40.3834C118.574 39.7839 117.876 39.4841 116.963 39.4841H115.46L114.132 46.8871H115.876Z" fill="white"/>
<path d="M123.552 49.4935L125.834 36.8901H128.666L126.384 49.4935H123.552Z" fill="white"/>
<path d="M128.572 49.4935L130.853 36.8901H133.483L136.825 43.5372C137.013 43.9151 137.134 44.241 137.201 44.5408C137.214 44.2019 137.241 43.863 137.295 43.5111L138.503 36.8901H141.28L138.999 49.4935H136.557L133 42.5466C132.92 42.3902 132.826 42.1035 132.705 41.6864C132.705 42.0123 132.678 42.299 132.625 42.5466L131.363 49.4935H128.572Z" fill="white"/>
<path d="M147.561 36.9031H151.762C153.506 36.9031 154.835 37.4505 155.761 38.5323C156.687 39.6141 157.157 41.0217 157.157 42.7552C157.157 43.5893 157.022 44.3974 156.754 45.1794C156.486 45.9484 156.083 46.6652 155.546 47.3299C155.009 47.9946 154.285 48.516 153.385 48.92C152.486 49.311 151.466 49.5195 150.326 49.5195H145.28L147.561 36.9031ZM150.232 46.8868C151.426 46.8868 152.379 46.4827 153.063 45.6877C153.761 44.8927 154.097 43.9542 154.097 42.8855C154.097 41.8168 153.869 40.9826 153.399 40.3831C152.929 39.7835 152.231 39.4838 151.319 39.4838H149.816L148.487 46.8868H150.232Z" fill="white"/>
<path d="M157.908 49.4935L160.189 36.8901H163.021L160.74 49.4935H157.908Z" fill="white"/>
<path d="M162.927 49.4935L165.209 36.8901H167.839L171.181 43.5372C171.368 43.9151 171.489 44.241 171.556 44.5408C171.57 44.2019 171.597 43.863 171.65 43.5111L172.858 36.8901H175.636L173.355 49.4935H170.912L167.356 42.5466C167.275 42.3902 167.181 42.1035 167.061 41.6864C167.061 42.0123 167.034 42.299 166.98 42.5466L165.719 49.4935H162.927Z" fill="white"/>
<path d="M72.1802 60.8717H67V59.7117H69.0667C68.8654 59.0992 68.6507 58.6039 68.4494 58.252L69.7645 58.0826C70.0061 58.5257 70.2208 59.0731 70.3953 59.6987H72.1802V60.8717ZM67.3355 61.7841H71.8715V62.8789H67.3355V61.7841ZM67.3355 63.8433H71.8715V64.9251H67.3355V63.8433ZM67.3758 66.0199H71.6836V70.7902H70.4624V70.1646H68.597V70.9205H67.3758V66.0199ZM70.4624 67.0626H68.597V69.0958H70.4624V67.0626ZM74.3006 65.4856H72.7438V61.2106H79.4271V65.4856H77.8166V68.9655C77.8166 69.2783 77.9777 69.4477 78.2998 69.4477H78.5011C78.7292 69.4477 78.8768 69.3435 78.9439 69.148C79.0244 68.9394 79.0513 68.366 79.0513 67.4406C79.0513 67.3754 79.0513 67.3233 79.0513 67.2972L80.2323 67.6882C80.2323 67.7664 80.2323 67.8446 80.2323 67.9359C80.2323 69.1349 80.0981 69.8778 79.8162 70.1646C79.5478 70.4513 79.1721 70.5817 78.6755 70.5817H78.0179C77.0248 70.5817 76.5283 70.0473 76.5283 68.9916V65.4856H75.5352C75.5352 65.5247 75.5352 65.5638 75.5352 65.6159C75.5352 68.1053 74.5824 69.8778 72.6767 70.9205L71.7776 69.8387C73.4417 69.0307 74.2737 67.5709 74.3006 65.4856ZM74.3811 61.1324C73.898 60.207 73.3746 59.3989 72.7975 58.7082L73.8174 58.1738C74.569 59.0861 75.1192 59.8681 75.4815 60.5068L74.3811 61.1324ZM78.1119 62.3575H74.0456V64.3517H78.1119V62.3575ZM76.5283 60.4155C77.159 59.803 77.6824 59.034 78.085 58.0826L79.1855 58.5648C78.7963 59.5423 78.2595 60.4025 77.5751 61.1585L76.5283 60.4155Z" fill="white"/>
<path d="M83.8691 66.3849C83.8691 66.424 83.8691 66.5022 83.8691 66.5934C83.8691 67.8707 83.7752 69.0307 83.5739 70.0864L82.8089 69.8518C83.0371 68.7961 83.1713 67.6361 83.1847 66.3458L83.8691 66.3849ZM88.6064 58.4736V59.5293H86.8887V60.5198H88.3649V61.5104H86.8887V62.5791H88.3649V63.5696H86.8887V64.6384H88.7272C88.6467 67.7795 88.5528 69.4999 88.4454 69.7996C88.3514 70.0994 88.1904 70.321 87.9623 70.4774C87.7341 70.6468 87.0765 70.725 86.0029 70.725L85.6943 69.4477C86.0163 69.4868 86.3518 69.4999 86.6874 69.4999C87.1302 69.4999 87.3986 69.3826 87.4791 69.1349C87.5597 68.8873 87.5865 67.8968 87.5865 66.1372C87.5865 65.9157 87.5865 65.7462 87.5865 65.6029H83.4263V58.4475L88.6064 58.4736ZM84.2449 69.8127C84.2851 69.2392 84.312 68.6657 84.3254 68.0792C84.3254 67.8186 84.3254 67.5449 84.3254 67.2451C84.3254 66.9062 84.3254 66.5934 84.3254 66.3197L84.9427 66.2806C85.0098 67.1669 85.0367 67.975 85.0367 68.7048C85.0367 69.1219 85.0233 69.4738 85.0098 69.7736L84.2449 69.8127ZM84.567 60.5198H85.8285V59.5293H84.567V60.5198ZM85.8285 62.5661V61.4973H84.567V62.5661H85.8285ZM85.8285 64.6254V63.5566H84.567V64.6254H85.8285ZM85.5332 69.0567C85.5332 68.0401 85.4527 67.0887 85.3051 66.1894L85.909 66.1242C86.1103 66.9323 86.2311 67.8707 86.2445 68.9264L85.5332 69.0567ZM86.7679 68.4572C86.5666 67.2712 86.4055 66.4761 86.2713 66.0851L86.8618 65.9157C87.1168 66.6064 87.2913 67.3754 87.3986 68.2096L86.7679 68.4572ZM96.0278 63.2829V64.3777H95.2494V69.1871C95.2494 69.8257 95.142 70.2428 94.9139 70.4513C94.6992 70.6729 94.2697 70.7772 93.6256 70.7772H92.2567L91.9346 69.4868L93.5987 69.539C93.9208 69.539 94.0819 69.3956 94.0819 69.1089V64.3647H88.6467V63.2699L96.0278 63.2829ZM93.129 58.0826C93.1156 58.265 93.0888 58.4605 93.0753 58.6821C93.0619 58.8515 93.0351 59.034 93.0082 59.2165H95.7862V60.2852H92.8069L92.6593 60.6241C93.1559 60.8456 93.6792 61.0802 94.2429 61.3279C94.8468 61.5886 95.4373 61.8362 96.0278 62.1099L95.3299 63.2699C94.8468 62.9571 94.2026 62.5921 93.3974 62.1751C92.5788 61.771 92.1493 61.5625 92.1091 61.5625C91.5186 62.4488 90.6463 63.0092 89.4922 63.2438L88.8346 62.1881C90.2705 61.8883 91.1831 61.2497 91.5857 60.2852H89.0627V59.2165H91.8273C91.9078 58.9428 91.9346 58.5648 91.9346 58.0826H93.129ZM93.1559 65.0815V69.0046H89.4653V65.0815H93.1559ZM92.0286 66.1112H90.5792V67.9619H92.0286V66.1112Z" fill="white"/>
<path d="M100.779 66.1112C100.577 67.6491 100.269 68.9655 99.8525 70.0603L98.6313 69.6432C99.007 68.7961 99.3425 67.5318 99.6244 65.8375L100.779 66.1112ZM98.6447 60.6241V59.4771H101.503C101.342 59.021 101.154 58.643 100.94 58.3172L102.241 58.0956C102.496 58.4736 102.724 58.9297 102.926 59.4771H105.422V60.6241H98.6447ZM99.1547 65.1858V61.5495H104.898V65.1858H102.872V69.3044C102.872 70.2819 102.443 70.7641 101.597 70.7641H100.497L100.188 69.539L101.127 69.565C101.409 69.565 101.543 69.4347 101.543 69.174V65.1858H99.1547ZM103.583 62.6312H100.456V64.1301H103.583V62.6312ZM104.08 68.6918C103.852 67.4797 103.65 66.6064 103.476 66.059L104.536 65.7723C104.711 66.2545 104.952 67.1017 105.247 68.3008L104.08 68.6918ZM107.193 62.6312H105.395V61.4191H107.207V58.0956H108.482V61.4191H111.743V62.6312H108.455C108.441 64.3256 108.119 65.9157 107.462 67.4145C106.804 68.9134 106.026 70.0864 105.127 70.9205L104.107 69.8518C104.872 69.2653 105.583 68.3008 106.227 66.9323C106.858 65.5768 107.18 64.1431 107.193 62.6312ZM108.401 64.1822H109.663V68.8873C109.663 69.2783 109.797 69.4738 110.079 69.4738C110.36 69.4738 110.495 69.2522 110.495 68.8091C110.495 68.366 110.481 67.7013 110.454 66.828L111.743 67.3363V69.2913C111.743 70.2428 111.179 70.725 110.065 70.725C108.951 70.725 108.401 70.2558 108.401 69.3304V64.1822ZM110.32 61.1324C109.743 60.3373 109.247 59.7508 108.844 59.3859L109.81 58.7733C110.468 59.412 110.951 59.9594 111.286 60.3764L110.32 61.1324Z" fill="white"/>
<path d="M115.474 66.3849C115.474 66.424 115.474 66.5022 115.474 66.5934C115.474 67.8707 115.38 69.0307 115.178 70.0864L114.4 69.8518C114.628 68.7961 114.762 67.6361 114.776 66.3458L115.474 66.3849ZM120.224 58.4736V59.5293H118.507V60.5198H119.983V61.5104H118.507V62.5791H119.983V63.5696H118.507V64.6384H120.345C120.265 67.7795 120.171 69.4999 120.063 69.7996C119.969 70.0994 119.808 70.321 119.58 70.4774C119.352 70.6468 118.694 70.725 117.621 70.725L117.312 69.4477C117.634 69.4868 117.97 69.4999 118.305 69.4999C118.748 69.4999 119.016 69.3826 119.097 69.1349C119.178 68.8873 119.204 67.8968 119.204 66.1372C119.204 65.9157 119.204 65.7462 119.204 65.6029H115.044V58.4475L120.224 58.4736ZM115.849 69.8127C115.89 69.2392 115.916 68.6657 115.93 68.0792C115.93 67.8186 115.93 67.5449 115.93 67.2451C115.93 66.9062 115.93 66.5934 115.93 66.3197L116.547 66.2806C116.614 67.1669 116.641 67.975 116.641 68.7048C116.641 69.1219 116.628 69.4738 116.614 69.7736L115.849 69.8127ZM116.185 60.5198H117.446V59.5293H116.185V60.5198ZM117.446 62.5661V61.4973H116.185V62.5661H117.446ZM117.446 64.6254V63.5566H116.185V64.6254H117.446ZM117.151 69.0567C117.151 68.0401 117.071 67.0887 116.923 66.1894L117.527 66.1242C117.728 66.9323 117.849 67.8707 117.862 68.9264L117.151 69.0567ZM118.386 68.4572C118.184 67.2712 118.023 66.4761 117.889 66.0851L118.48 65.9157C118.735 66.6064 118.909 67.3754 119.016 68.2096L118.386 68.4572ZM127.646 63.2829V64.3777H126.867V69.1871C126.867 69.8257 126.76 70.2428 126.532 70.4513C126.317 70.6729 125.888 70.7772 125.243 70.7772H123.875L123.552 69.4868L125.217 69.539C125.539 69.539 125.7 69.3956 125.7 69.1089V64.3647H120.265V63.2699L127.646 63.2829ZM124.733 58.0826C124.72 58.265 124.693 58.4605 124.68 58.6821C124.666 58.8515 124.64 59.034 124.613 59.2165H127.391V60.2852H124.411L124.25 60.6241C124.747 60.8456 125.27 61.0802 125.834 61.3279C126.438 61.5886 127.028 61.8362 127.619 62.1099L126.921 63.2699C126.438 62.9571 125.794 62.5921 124.988 62.1751C124.17 61.771 123.74 61.5625 123.7 61.5625C123.11 62.4488 122.237 63.0092 121.083 63.2438L120.412 62.1881C121.848 61.8883 122.761 61.2497 123.163 60.2852H120.64V59.2165H123.405C123.485 58.9428 123.512 58.5648 123.512 58.0826H124.733ZM124.76 65.0815V69.0046H121.07V65.0815H124.76ZM123.646 66.1112H122.197V67.9619H123.646V66.1112Z" fill="white"/>
<path d="M133.685 60.5719H135.738V70.5425H134.463V69.6172H131.94V70.725H130.665V60.5719H132.115C132.463 60.0376 132.772 59.2816 133.014 58.3041L134.302 58.6821C134.195 59.438 133.993 60.0636 133.685 60.5719ZM134.45 61.7189H131.927V64.3907H134.45V61.7189ZM134.45 65.5507H131.927V68.4572H134.45V65.5507ZM138.798 60.2982H143.186C143.159 64.7948 143.079 67.5057 142.945 68.4442C142.824 69.3695 142.596 69.9951 142.26 70.321C141.925 70.6468 141.106 70.8162 139.804 70.8162C139.509 70.8162 139.254 70.8163 139.026 70.8032L138.583 69.4217C139.187 69.4868 139.71 69.5129 140.167 69.5129C140.771 69.5129 141.173 69.3565 141.348 69.0437C141.522 68.7309 141.629 68.0141 141.697 66.8801C141.764 65.7462 141.79 64.2865 141.79 62.4879C141.79 62.0838 141.79 61.758 141.79 61.5104H138.435C138.087 62.6443 137.55 63.7651 136.825 64.873L135.711 63.8303C136.838 62.3445 137.509 60.4416 137.738 58.0956L139.066 58.278C139.039 58.9819 138.945 59.6466 138.798 60.2982ZM139.442 67.4797C138.878 66.1112 138.288 64.9512 137.644 63.9997L138.838 63.3872C139.469 64.2474 140.113 65.3813 140.797 66.8019L139.442 67.4797Z" fill="white"/>
<path d="M146.004 61.3539V60.1288H148.219C148.044 59.4902 147.83 58.9037 147.575 58.3432L148.917 58.1086C149.252 58.7082 149.494 59.3859 149.641 60.1288H151.372V61.3539H148.796C148.782 61.6277 148.782 61.9274 148.769 62.2663C148.756 62.6052 148.742 62.918 148.702 63.2177H151.144C151.158 63.9346 151.158 64.7036 151.158 65.5377C151.158 68.1574 151.024 69.6693 150.769 70.0473C150.5 70.4253 149.923 70.6208 149.024 70.6208C148.849 70.6208 148.702 70.6208 148.568 70.6208L148.272 69.3304C148.621 69.3565 148.917 69.3695 149.158 69.3695C149.198 69.3695 149.252 69.3695 149.279 69.3695C149.601 69.3695 149.789 69.1871 149.829 68.8091C149.869 68.4311 149.896 67.8837 149.91 67.1669C149.936 66.437 149.95 65.6029 149.95 64.6905C149.95 64.6123 149.95 64.5472 149.95 64.495H148.581C148.366 67.0235 147.856 69.161 147.038 70.8814L146.004 69.9951C147.011 67.61 147.521 64.7296 147.534 61.367L146.004 61.3539ZM151.963 62.8658L150.903 61.9535C151.923 60.976 152.755 59.6987 153.412 58.0956L154.647 58.4996C154.486 58.9819 154.325 59.3729 154.137 59.6596H159.035V60.7935H153.533C153.09 61.4843 152.567 62.1751 151.963 62.8658ZM157.358 60.976L158.109 62.0838C157.425 62.4618 156.66 62.7616 155.828 62.9831C155.828 63.3741 155.976 64.0649 156.271 65.0555C156.995 64.7296 157.64 64.2343 158.23 63.5827L159.076 64.5081C158.364 65.264 157.573 65.8244 156.687 66.2024C156.687 66.3718 156.942 66.8541 157.438 67.6622C157.948 68.4833 158.539 69.148 159.21 69.6563L158.337 70.9205C156.257 69.174 155.036 66.6325 154.687 63.2959C154.553 63.335 154.379 63.3741 154.164 63.4132C153.963 63.4523 153.761 63.5045 153.573 63.5436V68.8221C154.419 68.5615 155.13 68.2878 155.734 67.988V69.3044C154.701 69.8257 153.332 70.3079 151.654 70.7511L151.252 69.4477C151.788 69.3174 152.151 69.2262 152.298 69.1871V62.6052C154.137 62.3315 155.815 61.7971 157.358 60.976Z" fill="white"/>
<path d="M165.074 70.9205H163.759V65.1597C163.531 65.4856 163.115 65.9157 162.525 66.45L161.813 65.1597C163.303 63.8303 164.417 62.5661 165.155 61.354L166.188 62.0838C165.705 62.8137 165.343 63.3872 165.074 63.8303V70.9205ZM166.041 58.7994C164.94 60.0636 163.826 61.1063 162.712 61.9535L161.88 60.7544C163.115 60.0115 164.135 59.1252 164.927 58.0826L166.041 58.7994ZM172.898 63.6739V69.161C172.898 69.8518 172.778 70.2949 172.549 70.4904C172.308 70.699 171.798 70.8032 171.02 70.8032L168.993 70.8163L168.671 69.4477L170.63 69.539C170.711 69.539 170.791 69.539 170.872 69.539C171.14 69.539 171.301 69.5129 171.382 69.4608C171.462 69.3956 171.489 69.2001 171.489 68.8873V63.6609H166.403V62.4097H175.019V63.6609H172.898V63.6739ZM167.155 60.0245V58.7864H174.294V60.0245H167.155Z" fill="white"/>
</g>
<defs>
<clipPath id="clip0_709_574">
<rect width="202" height="51" fill="white" transform="translate(67 24)"/>
</clipPath>
</defs>
</svg>
