<svg width="30" height="30" viewBox="0 0 30 30" fill="none" xmlns="http://www.w3.org/2000/svg">
<path d="M14.92 1C7.2321 1 1 7.447 1 15.4C1 23.353 7.2321 29.8 14.92 29.8C22.6079 29.8 28.84 23.353 28.84 15.4C28.84 7.447 22.6079 1 14.92 1ZM20.5823 12.796C20.5881 12.919 20.5895 13.042 20.5895 13.162C20.5895 16.912 17.8331 21.2335 12.79 21.2335C11.2998 21.2361 9.8406 20.7933 8.58785 19.9585C8.801 19.9855 9.01995 19.996 9.2418 19.996C10.5265 19.996 11.7083 19.5445 12.6464 18.7825C12.0747 18.7709 11.5207 18.575 11.0617 18.2223C10.6027 17.8695 10.2615 17.3774 10.0857 16.8145C10.4963 16.8953 10.9192 16.8783 11.3226 16.765C10.702 16.6352 10.144 16.2874 9.74308 15.7805C9.34217 15.2736 9.12306 14.6389 9.1229 13.984V13.9495C9.49265 14.161 9.91605 14.29 10.3656 14.305C9.78381 13.9044 9.37199 13.289 9.21432 12.5847C9.05664 11.8804 9.16502 11.1404 9.5173 10.516C10.206 11.392 11.0648 12.1086 12.0382 12.6195C13.0116 13.1303 14.0779 13.424 15.168 13.4815C15.0294 12.873 15.089 12.2341 15.3376 11.6643C15.5862 11.0944 16.0099 10.6255 16.5427 10.3304C17.0755 10.0353 17.6876 9.93058 18.2838 10.0325C18.8801 10.1344 19.4271 10.4373 19.8399 10.894C20.4534 10.7684 21.0419 10.5356 21.5799 10.2055C21.3753 10.8627 20.9472 11.4208 20.3749 11.776C20.9184 11.7083 21.4492 11.5571 21.9496 11.3275C21.582 11.8973 21.1189 12.3947 20.5823 12.796V12.796Z" fill="white" fill-opacity="0.85"/>
</svg>
