<svg width="30" height="30" viewBox="0 0 30 30" fill="none" xmlns="http://www.w3.org/2000/svg">
<path d="M17.2444 15.1495L13.9877 13.5775C13.7035 13.441 13.47 13.594 13.47 13.9195V16.8805C13.47 17.206 13.7035 17.359 13.9877 17.2225L17.2429 15.6505C17.5286 15.5125 17.5286 15.2875 17.2444 15.1495ZM14.92 1C7.2321 1 1 7.447 1 15.4C1 23.353 7.2321 29.8 14.92 29.8C22.6079 29.8 28.84 23.353 28.84 15.4C28.84 7.447 22.6079 1 14.92 1ZM14.92 21.25C7.7947 21.25 7.67 20.5855 7.67 15.4C7.67 10.2145 7.7947 9.55 14.92 9.55C22.0453 9.55 22.17 10.2145 22.17 15.4C22.17 20.5855 22.0453 21.25 14.92 21.25Z" fill="white" fill-opacity="0.85"/>
</svg>
